<?xml version="1.0" encoding="utf-8"?>
<!-- Generator: Adobe Illustrator 17.1.0, SVG Export Plug-In . SVG Version: 6.00 Build 0)  -->
<!DOCTYPE svg PUBLIC "-//W3C//DTD SVG 1.1//EN" "http://www.w3.org/Graphics/SVG/1.1/DTD/svg11.dtd">
<svg version="1.1" id="Layer_1" xmlns="http://www.w3.org/2000/svg" xmlns:xlink="http://www.w3.org/1999/xlink" x="0px" y="0px"
	 viewBox="0 0 219.9 223.7" enable-background="new 0 0 219.9 223.7" xml:space="preserve">
<ellipse transform="matrix(0.7935 -0.6086 0.6086 0.7935 -45.6602 90.0924)" fill="none" stroke="#000000" stroke-width="4" stroke-miterlimit="10" cx="109.9" cy="112.3" rx="77.8" ry="97.1"/>
<g>
	<g>
		<path d="M23.3,78.6c-7.6,3.8-25.2-1.2-23.2,12.5c1.3,8.2,5.3,17,10.7,23.3c4.2,4.9,10.5,1.4,16,2.4c1.9,0.3,2.7-2.6,0.8-2.9
			c-2.5-0.4-5-0.7-7.5-0.3c-2.4,0.4-4.4,1.1-6.4-0.6c-5.7-4.8-9-14.5-10.5-21.6c-1.3-6.6,3.3-7.2,8.5-7.5c4.5-0.2,8.9-0.6,13.1-2.7
			C26.6,80.3,25,77.7,23.3,78.6L23.3,78.6z"/>
	</g>
</g>
<g>
	<g>
		<path d="M110.2,23.3c2.9-3.3,4.5-7.2,5.8-11.4c1.7-5.3,3.2-9.7,9.5-6.9c6.8,2.9,13.7,8.9,17.8,15c1.7,2.6,0.6,4.4-0.5,6.9
			c-1.1,2.4-1.6,4.9-1.8,7.6c-0.2,1.9,2.8,1.9,3,0c0.5-5.9,5.1-10.3,1.9-16c-4-7-12.6-13.4-19.9-16.5c-12.5-5.4-12.3,12.9-17.9,19.2
			C106.8,22.6,108.9,24.7,110.2,23.3L110.2,23.3z"/>
	</g>
</g>
<g>
	<g>
		<path d="M110.9,201.4c-2.9,3.3-4.5,7.2-5.8,11.4c-1.7,5.3-3.2,9.7-9.5,6.9c-6.8-2.9-13.7-8.9-17.8-15c-1.7-2.6-0.6-4.4,0.5-6.9
			c1.1-2.4,1.6-4.9,1.8-7.6c0.2-1.9-2.8-1.9-3,0c-0.5,5.9-5.1,10.3-1.9,16c4,7,12.6,13.4,19.9,16.5c12.5,5.4,12.3-12.9,17.9-19.2
			C114.3,202,112.2,199.9,110.9,201.4L110.9,201.4z"/>
	</g>
</g>
<g>
	<g>
		<path d="M196.5,140.5c7.6-3.8,25.2,1.2,23.2-12.5c-1.3-8.2-5.3-17-10.7-23.3c-4.2-4.9-10.5-1.4-16-2.4c-1.9-0.3-2.7,2.6-0.8,2.9
			c2.5,0.4,5,0.7,7.5,0.3c2.4-0.4,4.4-1.1,6.4,0.6c5.7,4.8,9,14.5,10.5,21.6c1.3,6.6-3.3,7.2-8.5,7.5c-4.5,0.2-8.9,0.6-13.1,2.7
			C193.3,138.8,194.8,141.4,196.5,140.5L196.5,140.5z"/>
	</g>
</g>
<g>
	<g>
		<path d="M159.5,197.9c2.4,2.7,6.1,4.5,9.3,6c2.4,1.1,6.4,3.1,9.1,1.8c5.9-2.8,1.6-15.9,0.1-20.3c-0.6-1.8-3.5-1-2.9,0.8
			c0.8,2.5,1.4,5.1,1.9,7.7c0.4,2.3,1.4,6.9-0.3,9c-1.1,1.3-7-1.8-8-2.3c-2.5-1.2-5.3-2.7-7.1-4.8
			C160.4,194.3,158.3,196.4,159.5,197.9L159.5,197.9z"/>
	</g>
</g>
<ellipse transform="matrix(0.7935 -0.6086 0.6086 0.7935 -45.7807 89.9657)" fill="none" stroke="#000000" stroke-width="4" stroke-miterlimit="10" cx="109.7" cy="112.4" rx="63.9" ry="81.9"/>
<polygon fill="none" stroke="#000000" stroke-width="4" stroke-miterlimit="10" points="119.3,105.8 100.8,120.1 79.2,111.1 
	76.1,87.9 94.6,73.7 116.3,82.6 "/>
<polygon fill="none" stroke="#000000" stroke-width="4" stroke-miterlimit="10" points="143.5,138.2 124.9,152.5 103.3,143.6 
	100.2,120.4 118.7,106.1 140.4,115 "/>
<polygon fill="none" stroke="#000000" stroke-width="4" stroke-miterlimit="10" points="95.1,74.2 77.2,87.9 56.1,79 52.9,56.4 
	70.8,42.6 91.9,51.5 "/>
<polygon fill="none" stroke="#000000" stroke-width="4" stroke-miterlimit="10" points="167.8,169.4 148.8,184 127.2,175.5 
	124.5,152.4 143.5,137.8 165.1,146.3 "/>
<polygon fill="none" stroke="#000000" stroke-width="4" stroke-miterlimit="10" points="103.5,142.4 85,156.7 63.4,147.7 
	60.3,124.5 78.8,110.3 100.5,119.2 "/>
<polygon fill="none" stroke="#000000" stroke-width="4" stroke-miterlimit="10" points="159.2,100 140.7,114.3 119.1,105.3 
	116,82.1 134.5,67.9 156.2,76.8 "/>
<polygon fill="none" stroke="#000000" stroke-width="4" stroke-miterlimit="10" points="80.7,109.6 63,123.2 42.3,114.6 39.3,92.4 
	57,78.8 77.7,87.4 "/>
<polygon fill="none" stroke="#000000" stroke-width="4" stroke-miterlimit="10" points="133.9,69.7 116.2,83.3 95.6,74.7 92.6,52.5 
	110.2,38.9 130.9,47.5 "/>
<polygon fill="none" stroke="#000000" stroke-width="4" stroke-miterlimit="10" points="126.9,173.3 109.9,186.3 89.9,177.9 
	86.9,156.5 103.9,143.4 123.9,151.8 "/>
<polygon fill="none" stroke="#000000" stroke-width="4" stroke-miterlimit="10" points="181.3,131.2 163.6,144.8 142.9,136.2 
	139.9,114 157.6,100.5 178.3,109.1 "/>
<g>
	<g>
		<path d="M72.3,22.2c-3.6-7.8-8.2-15.3-16.1-19.3c-7.3-3.7-17-4-24,0.2c-7.5,4.4-11.6,13.6-10.5,22c1.1,9,7.5,17,12.8,24
			c1.1,1.5,3.8,0,2.6-1.5C32.8,42,28.6,36.4,26,30c-3.5-8.6-0.9-16.3,5.5-22.6C37.8,1.1,48.7,2.4,56,6.1c6.8,3.4,10.7,11,13.8,17.6
			C70.5,25.5,73.1,23.9,72.3,22.2L72.3,22.2z"/>
	</g>
</g>
<line fill="none" stroke="#000000" stroke-width="4" stroke-miterlimit="10" x1="156.2" y1="76.8" x2="160.3" y2="73.6"/>
<line fill="none" stroke="#000000" stroke-width="4" stroke-miterlimit="10" x1="61.7" y1="149" x2="59" y2="151.3"/>
</svg>
